<svg viewBox="0 0 284 70" xmlns="http://www.w3.org/2000/svg">
<path fill-rule="evenodd" clip-rule="evenodd" d="M22.7758 18.6414C22.0946 18.6414 21.5263 18.518 20.8826 18.3971V36.3049C20.8826 36.731 20.8446 36.8519 20.6921 37.0336L14.3262 43.5304C15.2739 44.2591 16.4105 44.7462 17.5867 44.7462C21.6017 44.7462 26.1476 41.2225 28.2715 32.4213C28.3844 31.9342 28.6488 31.8133 28.6488 32.6629V33.2709C28.6488 42.9218 24.0633 51.6021 17.2828 51.6021C9.89384 51.6021 5.46136 42.6775 5.46136 33.3916C5.46136 26.4114 7.84533 19.9154 13.265 17.184C13.4935 17.0598 13.5316 17.2414 13.3785 17.4257C10.9924 20.3989 9.70334 25.2566 9.70334 30.1134C9.70334 35.2736 10.9924 40.3729 13.8714 43.1069L15.4629 41.1616C15.9953 40.4938 16.1066 39.8885 16.1066 38.9146V16.8179C14.3642 15.7866 12.8124 15.1787 11.3702 15.1787C9.40099 15.1787 7.619 16.5727 5.87666 19.9754C5.6878 20.3389 5.57267 20.3389 5.57267 19.9754C5.80118 13.116 9.62732 9.22974 13.4165 9.22974C17.7751 9.22974 21.7906 12.6324 26.1871 12.6324C27.739 12.6324 29.3321 12.0821 30.6576 10.9299C30.8465 10.8089 30.8839 11.0506 30.8085 11.2925C29.4455 16.7579 26.1096 18.6414 22.7758 18.6414ZM43.3908 51.0577C43.2377 51.2996 43.2377 51.2395 43.1242 51.1186L40.0929 46.8089C39.7889 46.3819 39.6379 46.0193 39.6379 45.2297V28.5951C39.6379 28.4141 39.6379 28.2298 39.4865 28.048L38.4634 26.5897C38.3483 26.4723 38.1974 26.4114 38.0465 26.5323L36.1152 27.9871V43.6538C36.1152 43.8957 36.0757 44.1382 36.2282 44.3192L37.1004 45.5323C37.3274 45.835 37.7045 46.2009 38.0465 46.0193L38.3483 45.835C38.7277 45.5923 38.8054 45.9558 38.5769 46.261L35.0921 51.0577C34.939 51.2996 34.9011 51.2395 34.7882 51.1186L31.7181 46.748C31.341 46.261 31.341 46.1402 31.341 45.3506V18.3971C31.341 18.0945 31.341 18.031 31.1504 17.7893L30.771 17.2414C30.3932 16.697 30.2423 16.8179 29.7495 17.184L28.9907 17.7284C28.8773 17.7893 28.7638 17.5466 28.9526 17.2414L32.9682 11.8395C33.1212 11.5977 33.1212 11.6586 33.2342 11.7795L35.6598 15.363C35.9638 15.8474 36.1152 16.1501 36.1152 16.9388V27.0766L41.1534 21.9781C41.3064 21.8563 41.4574 21.8563 41.5709 22.0382L44.0346 25.6827C44.3743 26.1671 44.4498 26.5323 44.4498 27.1375V43.7723C44.4498 44.0775 44.4498 44.1382 44.6403 44.3801L45.5879 45.6532C45.9658 46.2009 46.1167 46.0793 46.6095 45.7165L47.3683 45.1697C47.4812 45.1088 47.5968 45.3506 47.4058 45.6532L43.3908 51.0577ZM59.531 30.9639L52.8238 37.7024V42.8618C52.8238 43.3453 52.8618 43.5304 53.1278 43.7114L55.2875 45.5323C55.6648 45.835 56.3107 46.1402 56.6902 45.7741L58.6985 43.8957C59.0382 43.5905 59.3047 43.7723 59.1142 44.0175L53.6207 51.1186C53.5056 51.2996 53.5452 51.2395 53.3938 51.1186L48.5044 46.9897C48.1249 46.688 48.0121 46.5637 48.0121 45.7165V26.5323C48.0121 26.2271 48.0891 26.1062 48.3139 25.9853L56.3107 21.8563C56.4242 21.7965 56.5371 21.7356 56.6125 21.9781L59.6065 30.4768C59.682 30.6611 59.682 30.8429 59.531 30.9639ZM52.9015 25.0748L52.8238 25.1323V36.9153L55.4765 33.3916C55.629 33.2109 55.629 33.0864 55.5535 32.9081L52.9015 25.0748ZM86.9212 43.4695L81.4651 50.9977C81.3126 51.1786 81.1991 51.2996 81.0483 51.1786C77.7878 48.5689 74.9848 47.1106 72.1434 47.1106C69.793 47.1106 67.4825 48.3846 64.9058 51.1186C64.6773 51.3605 64.5265 51.2996 64.6773 50.8769C66.0424 47.3533 67.8618 43.6538 70.135 41.9512C70.1725 41.7096 70.2121 40.92 70.2121 39.8252V21.9781C70.2121 21.7356 70.2881 21.6147 70.439 21.4937L74.7579 17.3049C73.8102 17.6075 72.7496 17.8527 71.8394 17.8527C67.8999 17.8527 65.891 14.6952 65.1702 9.71676C65.1322 9.47159 65.2076 9.41156 65.3211 9.47159C67.3315 11.0506 68.9984 11.5977 70.6279 11.5977C73.3554 11.5977 77.2574 9.22974 79.6458 9.22974C84.4575 9.22974 87.1117 12.4482 87.1117 22.952V42.8009C87.1117 43.1069 87.0341 43.2879 86.9212 43.4695ZM82.3358 22.952C82.3358 17.3657 81.2371 15.8474 79.5323 15.8474C78.2806 15.8474 76.6892 16.637 74.9848 17.2414V35.4544C74.9848 35.7604 74.9094 36.0023 74.7959 36.1265L70.2881 41.8879C71.46 41.1016 72.7496 40.7381 74.0371 40.7381C76.8026 40.7381 79.7228 42.3747 82.0714 44.1382C82.2603 44.3192 82.3358 44.1382 82.3358 43.8321V22.952ZM100.681 51.0577C100.53 51.2996 100.492 51.2395 100.379 51.1186L96.9301 46.261L92.8376 51.1186C92.6866 51.2996 92.6486 51.2395 92.4977 51.0577L89.8831 47.2924C89.4657 46.748 89.4283 46.6237 89.4283 45.8949V28.1714C89.4283 27.8662 89.5792 27.8063 89.6546 27.7454L98.4461 21.9172C98.5971 21.7965 98.7479 21.7965 98.901 22.0382L101.25 25.8035C101.589 26.3479 101.706 26.654 101.706 27.0167V44.1382L102.388 45.1088C103.22 46.261 103.333 46.2009 103.713 45.8949L104.244 45.4714C104.585 45.1697 104.849 45.4113 104.545 45.835L100.681 51.0577ZM96.9301 28.4741C96.9301 28.108 96.8906 27.9271 96.7038 27.6245L95.3387 25.4409C95.2633 25.3166 95.2633 25.38 95.1482 25.4409L94.2004 26.1062V43.6538C94.2004 44.2591 94.2781 44.5619 94.5441 44.9271L95.0369 45.6532C95.3766 46.1402 95.7936 46.3819 96.2864 46.0193L96.9301 45.5323V28.4741ZM109.51 51.0577C109.357 51.2996 109.32 51.2395 109.206 51.1186L106.139 46.748C105.759 46.261 105.759 46.1402 105.759 45.3506V28.5951C105.759 28.2932 105.759 28.2298 105.571 27.9871L105.191 27.4427C104.812 26.8958 104.66 27.0167 104.168 27.3793L103.409 27.9271C103.296 27.9871 103.182 27.7454 103.371 27.4427L107.389 22.0382C107.542 21.7965 107.542 21.8563 107.653 21.9781L110.079 25.5583C110.383 26.0453 110.533 26.3479 110.533 27.1375V43.6538C110.533 43.8957 110.496 44.1382 110.647 44.3192L111.519 45.5323C111.748 45.835 112.125 46.2009 112.465 46.0193L112.769 45.835C113.148 45.5923 113.224 45.9558 112.997 46.261L109.51 51.0577ZM107.577 20.5234C107.466 20.7041 107.426 20.6441 107.313 20.5234L104.432 16.4553C104.356 16.3309 104.356 16.2101 104.47 16.0283L107.313 12.0212C107.426 11.9002 107.466 11.9002 107.577 12.0212L110.458 16.0892C110.571 16.2101 110.571 16.3309 110.458 16.4553L107.577 20.5234ZM118.036 51.0577C117.884 51.2996 117.847 51.2395 117.733 51.1186L114.662 46.748C114.285 46.261 114.285 46.1402 114.285 45.3506V18.3971C114.285 18.0945 114.285 18.031 114.096 17.7893L113.716 17.2414C113.337 16.697 113.186 16.8179 112.693 17.184L111.936 17.7284C111.821 17.7893 111.708 17.5466 111.899 17.2414L115.914 11.8395C116.065 11.5977 116.065 11.6586 116.18 11.7795L118.604 15.363C118.908 15.8474 119.059 16.1501 119.059 16.9388V43.6538C119.059 43.8957 119.021 44.1382 119.174 44.3192L120.044 45.5323C120.271 45.835 120.65 46.2009 120.99 46.0193L121.296 45.835C121.674 45.5923 121.749 45.9558 121.522 46.261L118.036 51.0577ZM135.277 55.2467L131.108 60.6486C130.995 60.8295 130.918 60.7721 130.845 60.7086C128.645 58.3407 126.904 57.2494 125.009 57.2494C123.682 57.2494 122.357 57.672 120.65 58.4016C120.499 58.4651 120.461 58.2807 120.537 58.099C122.317 53.7891 124.516 52.4553 126.563 52.4553C129.593 52.4553 132.435 55.4283 133.572 56.6407L133.685 56.5198C133.987 55.4283 134.103 54.3936 134.103 53.4232C134.103 50.329 132.511 47.8402 130.541 46.261L126.485 51.0577C126.296 51.2395 126.259 51.2395 126.146 51.1186L123.417 47.1715C123.038 46.6237 123.038 46.6237 123.038 45.7741V28.7158C123.038 28.4141 123.038 28.3532 122.849 28.108L122.317 27.3793C121.939 26.8349 121.789 26.9558 121.296 27.3193L120.537 27.8662C120.424 27.9271 120.311 27.6854 120.499 27.3793L124.516 21.9781C124.668 21.7356 124.668 21.7965 124.78 21.9172L127.358 25.6827C127.659 26.1671 127.812 26.4723 127.812 27.2619V43.8321C127.812 44.1382 127.851 44.4401 127.963 44.6217L128.874 45.9558C129.137 46.3819 129.63 46.2009 129.934 45.9558L130.541 45.5323V28.6558C130.541 28.3532 130.541 28.3532 130.352 28.108L129.819 27.3793C129.441 26.8349 129.326 26.8958 128.796 27.1375L128.494 27.2619C128.381 27.3193 128.267 27.0766 128.456 26.7749L132.019 21.9781C132.169 21.7356 132.169 21.7965 132.283 21.9172L134.86 25.6827C135.163 26.1671 135.314 26.4723 135.314 27.2619V43.2279C136.906 45.1088 137.589 46.9897 137.589 48.8716C137.589 50.9977 136.944 53.0604 135.277 55.2467ZM161.194 18.6414C160.513 18.6414 159.944 18.518 159.301 18.3971V36.3049C159.301 36.731 159.261 36.8519 159.11 37.0336L152.746 43.5304C153.692 44.2591 154.829 44.7462 156.005 44.7462C160.02 44.7462 164.566 41.2225 166.687 32.4213C166.803 31.9342 167.069 31.8133 167.069 32.6629V33.2709C167.069 42.9218 162.484 51.6021 155.701 51.6021C148.312 51.6021 143.877 42.6775 143.877 33.3916C143.877 26.4114 146.266 19.9154 151.684 17.184C151.91 17.0598 151.95 17.2414 151.797 17.4257C149.409 20.3989 148.121 25.2566 148.121 30.1134C148.121 35.2736 149.409 40.3729 152.289 43.1069L153.881 41.2826C154.449 40.6781 154.527 40.0094 154.527 39.0389V16.8179C152.782 15.7866 151.229 15.1787 149.79 15.1787C147.819 15.1787 146.039 16.5727 144.297 19.9754C144.106 20.3389 143.991 20.3389 143.991 19.9754C144.219 13.116 148.046 9.22974 151.836 9.22974C156.194 9.22974 160.209 12.6324 164.604 12.6324C166.159 12.6324 167.749 12.0821 169.076 10.9299C169.266 10.8089 169.302 11.0506 169.229 11.2925C167.864 16.7579 164.528 18.6414 161.194 18.6414ZM180.367 30.9639L173.661 37.7024V42.8618C173.661 43.3453 173.699 43.5304 173.963 43.7114L176.123 45.5323C176.502 45.835 177.148 46.1402 177.525 45.7741L179.534 43.8957C179.876 43.5905 180.14 43.7723 179.951 44.0175L174.456 51.1186C174.343 51.2996 174.38 51.2395 174.229 51.1186L169.342 46.9897C168.962 46.688 168.849 46.5637 168.849 45.7165V26.5323C168.849 26.2271 168.923 26.1062 169.151 25.9853L177.148 21.8563C177.261 21.7965 177.374 21.7356 177.452 21.9781L180.444 30.4768C180.521 30.6611 180.521 30.8429 180.367 30.9639ZM173.736 25.0748L173.661 25.1323V36.9153L176.314 33.3916C176.465 33.2109 176.465 33.0864 176.389 32.9081L173.736 25.0748ZM185.673 51.0577C185.52 51.2996 185.485 51.2395 185.371 51.1186L182.3 46.748C181.922 46.261 181.922 46.1402 181.922 45.3506V18.3971C181.922 18.0945 181.922 18.031 181.731 17.7893L181.354 17.2414C180.975 16.697 180.822 16.8179 180.331 17.184L179.572 17.7284C179.459 17.7893 179.344 17.5466 179.534 17.2414L183.55 11.8395C183.701 11.5977 183.701 11.6586 183.816 11.7795L186.241 15.363C186.545 15.8474 186.696 16.1501 186.696 16.9388V43.6538C186.696 43.8957 186.657 44.1382 186.808 44.3192L187.682 45.5323C187.908 45.835 188.288 46.2009 188.627 46.0193L188.931 45.835C189.311 45.5923 189.385 45.9558 189.158 46.261L185.673 51.0577ZM201.474 30.9639L194.768 37.7024V42.8618C194.768 43.3453 194.804 43.5304 195.071 43.7114L197.23 45.5323C197.608 45.835 198.253 46.1402 198.631 45.7741L200.64 43.8957C200.981 43.5905 201.245 43.7723 201.057 44.0175L195.561 51.1186C195.45 51.2996 195.488 51.2395 195.335 51.1186L190.447 46.9897C190.068 46.688 189.953 46.5637 189.953 45.7165V26.5323C189.953 26.2271 190.03 26.1062 190.257 25.9853L198.253 21.8563C198.366 21.7965 198.48 21.7356 198.555 21.9781L201.549 30.4768C201.625 30.6611 201.625 30.8429 201.474 30.9639ZM194.84 25.0748L194.768 25.1323V36.9153L197.421 33.3916C197.57 33.2109 197.57 33.0864 197.494 32.9081L194.84 25.0748ZM215.266 55.2467L211.098 60.6486C210.985 60.8295 210.909 60.7721 210.834 60.7086C208.634 58.3407 206.892 57.2494 204.998 57.2494C203.671 57.2494 202.344 57.672 200.64 58.4016C200.488 58.4651 200.451 58.2807 200.526 58.099C202.307 53.7891 204.505 52.4553 206.552 52.4553C209.584 52.4553 212.423 55.4283 213.561 56.6407L213.675 56.5198C213.977 55.4283 214.092 54.3936 214.092 53.4232C214.092 50.329 212.501 47.8402 210.53 46.261L206.437 51.1186C206.286 51.2996 206.172 51.2395 206.059 51.0577L203.482 47.2924C203.103 46.748 203.027 46.5061 203.027 45.8949V28.1714C203.027 27.8662 203.178 27.8063 203.254 27.7454L211.97 21.9781C212.198 21.7965 212.348 21.7965 212.423 21.9172L214.851 25.8035C215.153 26.2879 215.304 26.654 215.304 27.0766V43.2279C216.895 45.1088 217.578 46.9897 217.578 48.8716C217.578 50.9977 216.933 53.0604 215.266 55.2467ZM210.53 28.3532C210.53 28.108 210.492 27.9271 210.341 27.6854L208.938 25.4409C208.863 25.3166 208.825 25.38 208.71 25.4409L207.8 26.1062V43.5304C207.8 44.501 207.955 44.6217 208.559 45.5323C208.9 46.0193 209.087 46.2009 209.431 46.2009C209.735 46.2009 210.226 45.835 210.53 45.5323V28.3532ZM227.618 29.6872C227.429 29.9324 227.24 30.0533 227.052 30.0533C226.861 30.0533 226.67 29.9324 226.483 29.6872L224.171 26.5323L223.944 26.8349V43.7114C223.944 44.0775 223.944 44.1382 224.095 44.3192L224.701 45.1697C225.345 46.0193 225.496 46.1402 226.179 45.7165L226.634 45.4113C226.937 45.2297 227.012 45.4714 226.823 45.7741L222.919 51.0577C222.77 51.2996 222.731 51.2395 222.617 51.1186L219.623 46.8089C219.283 46.3219 219.168 46.1402 219.168 45.4714V28.1714L218.26 26.654C218.183 26.5323 218.147 26.5323 218.032 26.654L216.895 27.6854C216.555 27.9871 216.44 27.5636 216.669 27.2619L220.571 21.9781C220.722 21.7965 220.799 21.7965 220.875 21.9172L223.527 26.1062L226.141 21.9781C226.293 21.7965 226.406 21.7356 226.557 21.9781L228.566 24.954C228.945 25.4983 229.171 25.8035 229.4 25.8035C229.551 25.8035 229.742 25.6827 229.97 25.4409L230.498 24.8905C230.84 24.5279 230.991 25.0748 230.802 25.38L227.618 29.6872ZM241.601 51.0577C241.45 51.2996 241.41 51.2395 241.297 51.1186L237.848 46.261L233.757 51.1186C233.606 51.2996 233.568 51.2395 233.415 51.0577L230.802 47.2924C230.386 46.748 230.348 46.6237 230.348 45.8949V28.1714C230.348 27.8662 230.498 27.8063 230.574 27.7454L239.367 21.9172C239.517 21.7965 239.668 21.7965 239.819 22.0382L242.169 25.8035C242.511 26.3479 242.624 26.654 242.624 27.0167V44.1382L243.305 45.1088C244.14 46.261 244.255 46.2009 244.632 45.8949L245.163 45.4714C245.503 45.1697 245.769 45.4113 245.465 45.835L241.601 51.0577ZM237.848 28.4741C237.848 28.108 237.812 27.9271 237.623 27.6245L236.258 25.4409C236.183 25.3166 236.183 25.38 236.067 25.4409L235.122 26.1062V43.6538C235.122 44.2591 235.197 44.5619 235.462 44.9271L235.954 45.6532C236.294 46.1402 236.713 46.3819 237.206 46.0193L237.848 45.5323V28.4741ZM259.448 46.6237L256.001 50.8769C255.62 51.3605 255.544 51.2395 255.089 50.816L251.491 47.2924V54.3936L252.512 55.7944C252.627 55.9119 252.627 56.0363 252.512 56.2179L249.52 60.6486C249.444 60.7086 249.369 60.8295 249.216 60.6486L245.882 56.3389C245.769 56.2179 245.809 56.0963 245.882 55.9119L246.717 54.3936V28.2932L245.882 26.654C245.845 26.5897 245.809 26.5897 245.731 26.654L244.593 27.5636C244.33 27.8063 244.14 27.5036 244.366 27.201L248.231 21.9781C248.344 21.7965 248.497 21.7965 248.572 21.9172L251.376 26.3479L256.454 21.9781C256.607 21.8563 256.72 21.9172 256.756 21.9781L259.297 25.7436C259.485 26.0453 259.714 26.5323 259.714 27.0766V45.6532C259.714 46.0793 259.714 46.3219 259.448 46.6237ZM254.938 28.6558C254.938 28.2932 254.862 27.9871 254.712 27.7454L253.65 26.1062C253.575 25.9853 253.5 25.9853 253.384 26.0453L251.491 27.201V46.4428L252.552 46.9897C253.422 47.4133 253.801 47.3533 254.181 46.8089L254.56 46.261C254.902 45.7741 254.938 45.2297 254.938 44.2591V28.6558ZM274.422 51.0577C274.269 51.2996 274.269 51.2395 274.156 51.1186L271.124 46.8089C270.822 46.3819 270.671 46.0193 270.671 45.2297V28.5951C270.671 28.4141 270.671 28.2298 270.518 28.048L269.495 26.5897C269.381 26.4723 269.23 26.4114 269.08 26.5323L267.145 27.9871V43.6538C267.145 43.8957 267.107 44.1382 267.26 44.3192L268.13 45.5323C268.358 45.835 268.736 46.2009 269.08 46.0193L269.381 45.835C269.761 45.5923 269.835 45.9558 269.608 46.261L266.123 51.0577C265.972 51.2996 265.932 51.2395 265.819 51.1186L262.75 46.748C262.372 46.261 262.372 46.1402 262.372 45.3506V18.3971C262.372 18.0945 262.372 18.031 262.181 17.7893L261.802 17.2414C261.422 16.697 261.272 16.8179 260.781 17.184L260.022 17.7284C259.909 17.7893 259.793 17.5466 259.984 17.2414L263.999 11.8395C264.152 11.5977 264.152 11.6586 264.266 11.7795L266.691 15.363C266.995 15.8474 267.145 16.1501 267.145 16.9388V27.0766L272.185 21.9781C272.338 21.8563 272.487 21.8563 272.602 22.0382L275.065 25.6827C275.405 26.1671 275.481 26.5323 275.481 27.1375V43.7723C275.481 44.0775 275.481 44.1382 275.67 44.3801L276.619 45.6532C276.997 46.2009 277.148 46.0793 277.64 45.7165L278.399 45.1697C278.514 45.1088 278.626 45.3506 278.437 45.6532L274.422 51.0577Z" fill="black"/>
</svg>
