<svg  viewBox="0 0 284 70"  xmlns="http://www.w3.org/2000/svg">
<g clip-path="url(#clip0_1_3485)">
<path d="M30.831 40.1927V41.4215H10.6898V40.1927C14.8339 40.0698 16.0772 39.7011 16.0772 36.3833V14.7559C16.0772 11.4381 14.834 11.0695 10.8556 10.9465V9.71769H46.4124L46.6611 16.6605H44.9206C43.4287 13.1584 41.771 11.9911 33.4826 11.9911H27.0176C25.0284 11.9911 24.614 12.2983 24.614 13.5885V23.6649H27.7636C34.3943 23.6649 35.8033 22.7433 36.6322 19.4869H38.2899V30.6079H36.6322C35.7205 26.9215 33.234 25.9384 27.7636 25.9384H24.614L24.5311 36.3834C24.5311 39.7012 25.7744 40.0698 30.8302 40.1928L30.831 40.1927ZM87.5231 16.7832H85.3681C83.9591 13.3424 81.9699 12.1137 77.4942 12.1137H72.2726V36.3211C72.2726 39.6389 73.433 40.0075 78.2403 40.1305V41.3593H57.6858V40.1305C62.4101 40.0076 63.6535 39.6389 63.6535 36.3211V12.0516H58.4319C53.9562 12.0516 51.8841 13.3418 50.558 16.7211H48.403L49.3147 9.77822H86.6124L87.5231 16.7832ZM0 70.0674H94.5209V0H0V70.0674Z" fill="#515151"/>
<path d="M113.797 40.4999C113.797 42.0974 114.378 42.2202 116.864 42.2817V42.8347H107.249V42.2817C109.239 42.2202 109.819 42.0359 109.819 40.4999V30.1778C109.819 28.5803 109.239 28.4575 107.332 28.396V27.843H124.24L124.323 31.1608H123.494C122.831 29.5019 122.002 28.9489 118.024 28.9489H114.874C113.88 28.9489 113.714 29.0718 113.714 29.7477V34.5401H117.195C120.428 34.5401 121.091 34.11 121.422 32.574H122.168V37.9193H121.422C121.008 36.1375 119.765 35.6461 117.195 35.6461H113.714V40.4999H113.797L113.797 40.4999ZM133.855 40.4999C133.855 42.0974 134.435 42.2202 136.922 42.2817V42.8347H126.81V42.2817C129.213 42.2202 129.876 42.0359 129.876 40.4999V30.1778C129.876 28.5803 129.379 28.4575 126.81 28.396V27.843H136.922V28.396C134.518 28.4574 133.855 28.6418 133.855 30.1778V40.4999ZM157.891 30.5465C157.891 29.0719 157.394 28.4576 155.073 28.2733V27.7203H162.284V28.2733C160.046 28.4576 159.466 29.072 159.466 30.5465V43.1423H158.389L144.464 31.2223V39.9469C144.464 41.4216 144.961 42.0359 147.282 42.2202V42.7732H140.071V42.2202C142.309 42.0359 142.889 41.4215 142.889 39.9469V29.8706C142.226 28.949 141.397 28.5189 140.071 28.3346V27.7817H145.624L157.808 38.2266V30.5465L157.891 30.5465ZM168.749 37.4279L171.816 31.4681L174.882 37.4279H168.749H168.749ZM183.337 42.8347V42.2818C181.762 42.2818 181.43 41.8517 180.684 40.4385L173.473 27.4132H172.479L165.019 40.869C164.522 41.8521 163.776 42.0979 162.533 42.2822V42.8352H169.08V42.2822C167.671 42.2822 167.008 42.0364 167.008 41.2991C167.008 40.6847 168.003 38.9644 168.169 38.5343H175.545C175.794 39.0258 176.789 40.7462 176.789 41.2991C176.789 42.0364 176.043 42.2822 174.634 42.2822V42.8352H183.336L183.337 42.8347ZM203.146 30.5463C203.146 29.0717 202.648 28.4574 200.328 28.2731V27.7201H207.539V28.2731C205.301 28.4574 204.721 29.0718 204.721 30.5463V43.1421H203.643L189.719 31.2221V39.9467C189.719 41.4214 190.216 42.0357 192.537 42.22V42.773H185.326V42.22C187.564 42.0357 188.144 41.4213 188.144 39.9467V29.8704C187.481 28.9488 186.652 28.5187 185.326 28.3344V27.7815H190.879L203.063 38.2264L203.146 30.5463L203.146 30.5463ZM228.923 39.3323C226.768 42.0357 223.95 43.2645 219.806 43.2645C213.175 43.2645 209.197 40.0696 209.197 35.2158C209.197 31.7751 212.843 27.4128 219.971 27.4128C222.126 27.4128 225.11 28.3345 225.607 28.3345C226.188 28.3345 226.353 28.0887 226.934 27.4128H228.011L228.426 32.4509H227.597C226.353 30.1162 224.281 28.3959 220.717 28.3959C215.91 28.3959 213.838 32.2666 213.838 35.1544C213.838 39.2095 216.159 41.9743 221.298 41.9743C225.276 41.9743 227.431 39.7624 228.343 38.8408L228.923 39.3324L228.923 39.3323ZM238.703 40.4997C238.703 42.0972 239.283 42.22 241.77 42.2815V42.8344H231.658V42.2815C234.062 42.22 234.725 42.0357 234.725 40.4997V30.1776C234.725 28.5801 234.144 28.4573 231.658 28.3958V27.8428H241.77V28.3958C239.366 28.4572 238.703 28.6416 238.703 30.1776V40.4997ZM250.141 37.4277L253.208 31.4679L256.274 37.4277H250.141H250.141ZM264.729 42.8345V42.2816C263.154 42.2816 262.822 41.8515 262.077 40.4383L254.866 27.413H253.871L246.411 40.8688C245.914 41.8519 245.168 42.0977 243.925 42.282V42.8349H250.473V42.282C249.064 42.282 248.401 42.0362 248.401 41.2989C248.401 40.6845 249.395 38.9642 249.561 38.5341H256.938C257.186 39.0256 258.181 40.746 258.181 41.2989C258.181 42.0362 257.435 42.282 256.026 42.282V42.8349H264.729L264.729 42.8345ZM266.552 42.8345V42.2816C268.459 42.2201 269.039 42.0358 269.039 40.4998V30.1777C269.039 28.5802 268.459 28.4573 266.552 28.3959V27.8429H275.918V28.3959C273.68 28.4573 273.1 28.6416 273.1 30.1777V40.8071C273.1 41.7287 273.432 42.036 275.669 42.036C279.316 42.036 281.471 41.5445 283.212 38.9025H283.958L282.549 42.9576H266.386V42.8347L266.552 42.8345ZM111.559 66.6735C113.88 66.612 114.46 66.4277 114.46 64.8917V53.2791H111.974C109.653 53.2791 108.658 54.0163 107.995 56.0439H107.166L107.664 52.1732H125.567L126.064 56.0439H125.235C124.572 53.955 123.661 53.2791 121.257 53.2791H118.77V64.8917C118.77 66.4892 119.351 66.612 121.671 66.6735V67.2264H111.891V66.6735H111.56H111.559ZM135.099 64.8917C135.099 66.4892 135.679 66.612 138.165 66.6735V67.2264H128.053V66.6735C130.457 66.612 131.12 66.4277 131.12 64.8917V54.5696C131.12 52.9721 130.54 52.8493 128.053 52.7878V52.2348H138.165V52.7878C135.762 52.8492 135.099 53.0336 135.099 54.5696V64.8917ZM159.549 52.1117H166.595V52.6646C164.688 52.7261 164.108 52.9104 164.108 54.4464V64.8299C164.108 66.4274 164.688 66.5502 166.595 66.6117V67.1647H157.395V66.6117C159.384 66.5503 159.964 66.3659 159.964 64.8299V54.2004H159.881L153.085 67.4099H152.09L145.376 54.2004H145.293V64.3996C145.293 65.8742 145.791 66.4885 148.111 66.6729V67.2258H140.901V66.6729C143.138 66.4885 143.719 65.8741 143.719 64.3996V54.0775C143.719 53.033 143.138 52.6643 140.901 52.6643V52.1114H148.277L153.665 62.6178L159.549 52.1114L159.549 52.1117ZM169.413 67.2264V66.6735C171.319 66.612 171.899 66.4277 171.899 64.8917V54.5696C171.899 52.9721 171.319 52.8492 169.413 52.7878V52.2348H186.404L186.487 55.5526H185.658C184.995 53.8936 184.167 53.3407 180.188 53.3407H177.039C176.044 53.3407 175.878 53.4636 175.878 54.1394V58.9318H179.359C182.592 58.9318 183.255 58.5018 183.586 56.9657H184.332V62.3111H183.586C183.172 60.5293 181.929 60.0992 179.359 60.0992H175.878V65.3216C175.878 66.2432 176.21 66.5505 179.857 66.5505C183.504 66.5505 185.658 66.0589 187.399 63.417H188.145L186.736 67.472H169.247V67.2263L169.413 67.2264ZM190.963 62.4955H191.709C192.537 64.4616 195.19 66.612 198.174 66.612C200.743 66.612 201.655 65.2603 201.655 64.0929C201.655 60.5908 191.046 59.9764 191.046 55.6756C191.046 53.5866 193.698 51.8048 196.847 51.8048C199.914 51.8048 200.992 52.6036 202.318 52.6036C202.898 52.6036 203.312 52.2964 203.395 51.8048H204.141V56.6586H203.395C202.566 54.4467 200.411 52.8493 197.676 52.8493C195.438 52.8493 194.527 53.9552 194.527 54.9997C194.527 58.0717 205.136 58.1332 205.136 63.4785C205.136 65.8747 202.566 67.6565 198.837 67.6565C195.273 67.6565 194.361 66.7349 192.952 66.7349C192.455 66.7349 192.123 66.9807 191.874 67.5336H190.797L190.963 62.4955L190.963 62.4955Z" fill="#515151"/>
</g>
<defs>
<clipPath id="clip0_1_3485">
<rect width="284" height="70" fill="white"/>
</clipPath>
</defs>
</svg>
