<svg viewBox="0 0 32 32" fill="currentColor" xmlns="http://www.w3.org/2000/svg">
<path fill-rule="evenodd" clip-rule="evenodd" d="M7.03116 7.03115C7.51715 6.54516 8.30509 6.54516 8.79107 7.03115L24.9688 23.2089C25.4548 23.6949 25.4548 24.4828 24.9688 24.9688C24.4829 25.4548 23.6949 25.4548 23.2089 24.9688L7.03116 8.79106C6.54518 8.30507 6.54518 7.51713 7.03116 7.03115Z" fill="white"/>
<path fill-rule="evenodd" clip-rule="evenodd" d="M24.9689 7.03115C24.4829 6.54516 23.6949 6.54516 23.2089 7.03115L7.03117 23.2089C6.54518 23.6949 6.54518 24.4828 7.03117 24.9688C7.51715 25.4548 8.30509 25.4548 8.79107 24.9688L24.9689 8.79106C25.4548 8.30507 25.4548 7.51713 24.9689 7.03115Z" fill="white"/>
</svg>
